<?xml version="1.0" encoding="UTF-8"?> <!-- Generator: Adobe Illustrator 23.0.3, SVG Export Plug-In . SVG Version: 6.00 Build 0) --> <svg xmlns="http://www.w3.org/2000/svg" xmlns:xlink="http://www.w3.org/1999/xlink" id="Modo_de_aislamiento" x="0px" y="0px" viewBox="0 0 99.2 86.68" style="enable-background:new 0 0 99.2 86.68;" xml:space="preserve"> <style type="text/css"> .st0{fill:url(#SVGID_1_);} .st1{fill:url(#SVGID_2_);} .st2{fill:url(#SVGID_3_);} .st3{fill:url(#SVGID_4_);} .st4{fill:url(#SVGID_5_);} .st5{fill:url(#SVGID_6_);} .st6{fill:url(#SVGID_7_);} .st7{fill:url(#SVGID_8_);} </style> <g> <linearGradient id="SVGID_1_" gradientUnits="userSpaceOnUse" x1="-32.1872" y1="96.5323" x2="119.3053" y2="-17.462"> <stop offset="0" style="stop-color:#05058E"></stop> <stop offset="1" style="stop-color:#D82437"></stop> </linearGradient> <path class="st0" d="M97.62,0H1.59C0.71,0,0,0.71,0,1.59v66.8c0,0.88,0.71,1.59,1.59,1.59h62.63c0.88,0,1.59-0.71,1.59-1.59 c0-0.88-0.71-1.59-1.59-1.59H3.18V3.18h92.85V66.8H85.09c-0.88,0-1.59,0.71-1.59,1.59c0,0.88,0.71,1.59,1.59,1.59h12.53 c0.88,0,1.59-0.71,1.59-1.59V1.59C99.2,0.71,98.49,0,97.62,0z"></path> <linearGradient id="SVGID_2_" gradientUnits="userSpaceOnUse" x1="-37.2018" y1="89.8682" x2="114.2907" y2="-24.1261"> <stop offset="0" style="stop-color:#05058E"></stop> <stop offset="1" style="stop-color:#D82437"></stop> </linearGradient> <path class="st1" d="M87.68,39.16c0,0.88,0.71,1.59,1.59,1.59c0.88,0,1.59-0.71,1.59-1.59V9.94c0-0.88-0.71-1.59-1.59-1.59H9.94 c-0.88,0-1.59,0.71-1.59,1.59v50.1c0,0.88,0.71,1.59,1.59,1.59h43.84c0.88,0,1.59-0.71,1.59-1.59s-0.71-1.59-1.59-1.59H11.53V11.53 h76.15V39.16z"></path> <linearGradient id="SVGID_3_" gradientUnits="userSpaceOnUse" x1="-40.2104" y1="85.8698" x2="111.282" y2="-28.1245"> <stop offset="0" style="stop-color:#05058E"></stop> <stop offset="1" style="stop-color:#D82437"></stop> </linearGradient> <path class="st2" d="M31.31,18.29c0,0.88,0.71,1.59,1.59,1.59h33.4c0.88,0,1.59-0.71,1.59-1.59c0-0.88-0.71-1.59-1.59-1.59H32.9 C32.03,16.7,31.31,17.41,31.31,18.29z"></path> <linearGradient id="SVGID_4_" gradientUnits="userSpaceOnUse" x1="-36.1989" y1="91.2009" x2="115.2935" y2="-22.7934"> <stop offset="0" style="stop-color:#05058E"></stop> <stop offset="1" style="stop-color:#D82437"></stop> </linearGradient> <path class="st3" d="M80.92,25.05H18.29c-0.88,0-1.59,0.71-1.59,1.59c0,0.88,0.71,1.59,1.59,1.59h62.63c0.88,0,1.59-0.71,1.59-1.59 C82.5,25.76,81.79,25.05,80.92,25.05z"></path> <linearGradient id="SVGID_5_" gradientUnits="userSpaceOnUse" x1="-34.451" y1="93.5237" x2="117.0414" y2="-20.4706"> <stop offset="0" style="stop-color:#05058E"></stop> <stop offset="1" style="stop-color:#D82437"></stop> </linearGradient> <path class="st4" d="M61.63,34.99c0-0.88-0.71-1.59-1.59-1.59h-33.4c-0.88,0-1.59,0.71-1.59,1.59c0,0.88,0.71,1.59,1.59,1.59h33.4 C60.92,36.58,61.63,35.86,61.63,34.99z"></path> <linearGradient id="SVGID_6_" gradientUnits="userSpaceOnUse" x1="-30.8167" y1="98.3536" x2="120.6758" y2="-15.6407"> <stop offset="0" style="stop-color:#05058E"></stop> <stop offset="1" style="stop-color:#D82437"></stop> </linearGradient> <path class="st5" d="M53.28,43.34c0-0.88-0.71-1.59-1.59-1.59H32.9c-0.88,0-1.59,0.71-1.59,1.59s0.71,1.59,1.59,1.59h18.79 C52.56,44.93,53.28,44.21,53.28,43.34z"></path> <linearGradient id="SVGID_7_" gradientUnits="userSpaceOnUse" x1="-38.3635" y1="88.3243" x2="113.129" y2="-25.67"> <stop offset="0" style="stop-color:#05058E"></stop> <stop offset="1" style="stop-color:#D82437"></stop> </linearGradient> <path class="st6" d="M26.14,43.34c0-0.88-0.71-1.59-1.59-1.59h-6.26c-0.88,0-1.59,0.71-1.59,1.59s0.71,1.59,1.59,1.59h6.26 C25.43,44.93,26.14,44.21,26.14,43.34z"></path> <linearGradient id="SVGID_8_" gradientUnits="userSpaceOnUse" x1="-33.652" y1="145.7155" x2="174.7563" y2="-11.1066"> <stop offset="0" style="stop-color:#05058E"></stop> <stop offset="1" style="stop-color:#D82437"></stop> </linearGradient> <path class="st7" d="M74.65,37.58c-8.93,0-16.2,7.27-16.2,16.2c0,3.93,1.44,7.72,4.05,10.69l0.12,0.14v20.48 c0,0.42,0.17,0.82,0.47,1.12c0.3,0.3,0.67,0.47,1.12,0.46c0.42,0,0.82-0.17,1.12-0.47l9.31-9.31l9.31,9.33 c0.3,0.3,0.69,0.46,1.11,0.46c0,0,0.01,0,0.01,0c0.88,0,1.59-0.71,1.59-1.59V64.61l0.12-0.14c2.61-2.97,4.05-6.76,4.05-10.69 C90.85,44.84,83.58,37.58,74.65,37.58z M83.5,81.26l-7.74-7.72c-0.62-0.61-1.62-0.61-2.24,0l-7.72,7.72V67.36l0.75,0.43 c4.93,2.86,11.26,2.86,16.2,0l0.75-0.43V81.26z M74.65,66.8c-7.18,0-13.03-5.84-13.03-13.03s5.84-13.03,13.03-13.03 s13.03,5.84,13.03,13.03S81.83,66.8,74.65,66.8z"></path> </g> </svg> 